<svg width="369" height="80" viewBox="0 0 369 80" fill="none" xmlns="http://www.w3.org/2000/svg">
<path d="M151.28 4.59298C150.028 2.59496 151.464 0 153.822 0H342.497C345.018 0 347.344 1.35545 348.587 3.5486L367.323 36.6094C368.363 38.4445 368.363 40.691 367.323 42.5261L348.587 75.5869C347.344 77.78 345.018 79.1355 342.497 79.1355H153.822C151.464 79.1355 150.028 76.5405 151.28 74.5425L172.198 41.1607C172.809 40.1865 172.809 38.949 172.198 37.9747L151.28 4.59298Z" fill="#222222"/>
<path d="M0 6.98248H19.755C24.0652 6.98248 27.7169 7.72848 30.7101 9.22047C33.7033 10.7125 35.9781 12.9206 37.5346 15.8449C39.121 18.7394 39.9142 22.3351 39.9142 26.6321C39.9142 29.8846 39.4203 32.7492 38.4325 35.226C37.4747 37.7027 36.0829 39.7915 34.257 41.4923C32.4312 43.1634 30.2312 44.4614 27.6571 45.3865L24.4693 47.1321H7.76732L7.72243 38.0011H19.4857C21.6108 38.0011 23.3768 37.5386 24.7836 36.6135C26.1904 35.6885 27.238 34.4054 27.9265 32.7642C28.6448 31.123 29.004 29.258 29.004 27.1692C29.004 24.9312 28.6897 22.9916 28.0611 21.3504C27.4326 19.6794 26.4448 18.3962 25.0979 17.501C23.751 16.576 21.97 16.1135 19.755 16.1135H10.9102V72.1529H0V6.98248ZM30.4407 72.1529L18.004 42.8799L29.3632 42.8351L42.1142 71.571V72.1529H30.4407Z" fill="#222222"/>
<path d="M71.4773 47.9825H57.6937V38.8963H71.4773C73.7222 38.8963 75.5331 38.4188 76.91 37.464C78.3168 36.5091 79.3345 35.1961 79.963 33.5251C80.6215 31.854 80.9508 29.9592 80.9508 27.8406C80.9508 25.8115 80.6215 23.9017 79.963 22.1113C79.3345 20.3209 78.3317 18.8737 76.9549 17.7696C75.578 16.6655 73.7522 16.1135 71.4773 16.1135H60.7468V72.1529H49.8815V6.98248H71.4773C75.7875 6.98248 79.4692 7.87768 82.5222 9.66807C85.5753 11.4585 87.91 13.9203 89.5263 17.0534C91.1426 20.1568 91.9508 23.7227 91.9508 27.7511C91.9508 31.9585 91.1426 35.5691 89.5263 38.583C87.91 41.5968 85.5753 43.9243 82.5222 45.5655C79.4692 47.1768 75.7875 47.9825 71.4773 47.9825Z" fill="#222222"/>
<path d="M133.481 50.8919H144.347C144.137 55.6066 143.179 59.6201 141.473 62.9323C139.767 66.2147 137.313 68.7213 134.11 70.452C130.937 72.1827 127.061 73.0481 122.481 73.0481C119.009 73.0481 115.896 72.4214 113.143 71.1681C110.419 69.9149 108.099 68.1096 106.183 65.7522C104.268 63.365 102.801 60.4556 101.783 57.024C100.796 53.5924 100.302 49.6983 100.302 45.3417V33.7936C100.302 29.437 100.811 25.5429 101.828 22.1113C102.876 18.6797 104.372 15.7703 106.318 13.3831C108.264 10.9959 110.628 9.19063 113.412 7.9672C116.226 6.71392 119.398 6.08728 122.93 6.08728C127.45 6.08728 131.251 6.95264 134.334 8.68335C137.417 10.4141 139.797 12.9505 141.473 16.2925C143.149 19.6346 144.122 23.7078 144.391 28.512H133.526C133.376 25.2594 132.928 22.6634 132.179 20.7238C131.461 18.7543 130.353 17.3369 128.857 16.4716C127.39 15.6062 125.415 15.1735 122.93 15.1735C120.865 15.1735 119.084 15.5615 117.587 16.3373C116.121 17.1131 114.909 18.2769 113.951 19.8286C113.023 21.3504 112.319 23.2751 111.84 25.6026C111.392 27.9003 111.167 30.6008 111.167 33.7041V45.3417C111.167 48.3257 111.362 50.9665 111.751 53.2642C112.14 55.5619 112.768 57.5164 113.636 59.1277C114.504 60.7092 115.657 61.9178 117.094 62.7533C118.53 63.559 120.326 63.9618 122.481 63.9618C125.055 63.9618 127.106 63.559 128.632 62.7533C130.189 61.9476 131.341 60.5899 132.089 58.6801C132.838 56.7704 133.302 54.1743 133.481 50.8919Z" fill="#222222"/>
<path d="M194.527 59.7073V18.703H220.001V25.7323H202.169V35.6319H218.611V42.6612H202.169V59.7073H194.527Z" fill="#E3B4FA"/>
<path d="M324.176 59.7068V25.5299H312.295V18.4588H343.744V25.5299H331.863V59.7068H324.176Z" fill="#E3B4FA"/>
<path d="M241.937 59.7074C239.159 59.7074 236.669 59.2301 234.468 58.2755C232.319 57.3209 230.589 55.9155 229.279 54.0593C228.021 52.2032 227.392 49.9493 227.392 47.2976C227.392 44.5929 228.021 42.3655 229.279 40.6154C230.589 38.8123 232.345 37.46 234.546 36.5584C236.8 35.6568 239.342 35.2061 242.172 35.2061H253.966V32.6605C253.966 30.38 253.284 28.5504 251.922 27.1715C250.559 25.7927 248.462 25.1032 245.632 25.1032C242.854 25.1032 240.731 25.7662 239.263 27.092C237.796 28.4178 236.826 30.1414 236.355 32.2627L228.807 29.7967C229.436 27.6753 230.432 25.7662 231.794 24.0691C233.21 22.319 235.07 20.9136 237.377 19.853C239.683 18.7923 242.461 18.262 245.71 18.262C250.742 18.262 254.7 19.5613 257.582 22.1599C260.465 24.7585 261.906 28.4443 261.906 33.2173V49.3659C261.906 50.9569 262.64 51.7524 264.108 51.7524H267.41V58.5937H261.356C259.522 58.5937 258.028 58.1164 256.875 57.1618C255.722 56.2072 255.145 54.9079 255.145 53.2638V53.0252H253.966C253.546 53.8207 252.917 54.7488 252.079 55.8094C251.24 56.8701 250.008 57.7982 248.384 58.5937C246.759 59.3361 244.61 59.7074 241.937 59.7074ZM243.116 52.9456C246.366 52.9456 248.986 52.0176 250.978 50.1614C252.97 48.2522 253.966 45.6536 253.966 42.3655V41.57H242.644C240.495 41.57 238.766 42.0473 237.455 43.0019C236.145 43.9035 235.49 45.2558 235.49 47.059C235.49 48.8621 236.171 50.294 237.534 51.3546C238.897 52.4153 240.757 52.9456 243.116 52.9456Z" fill="#E3B4FA"/>
<path d="M290.858 59.7074C285.931 59.7074 281.843 58.5937 278.593 56.3663C275.344 54.1389 273.352 50.7713 272.618 46.2635L280.166 44.4338C280.585 46.6082 281.293 48.3318 282.288 49.6046C283.284 50.8773 284.516 51.7789 285.984 52.3092C287.504 52.8396 289.129 53.1047 290.858 53.1047C293.427 53.1047 295.392 52.6009 296.755 51.5933C298.17 50.5857 298.878 49.2864 298.878 47.6954C298.878 46.1044 298.222 44.9376 296.912 44.1952C295.602 43.4527 293.662 42.8428 291.094 42.3655L288.421 41.8882C285.8 41.4109 283.415 40.7215 281.266 39.8199C279.117 38.9184 277.414 37.6721 276.156 36.0811C274.898 34.4901 274.269 32.4483 274.269 29.9558C274.269 26.2435 275.632 23.3797 278.357 21.3644C281.083 19.2961 284.7 18.262 289.207 18.262C293.558 18.262 297.122 19.2696 299.9 21.2849C302.73 23.2471 304.565 25.9253 305.403 29.3194L297.856 31.4672C297.384 29.0807 296.388 27.4102 294.868 26.4556C293.348 25.448 291.461 24.9441 289.207 24.9441C287.006 24.9441 285.276 25.3684 284.018 26.2169C282.76 27.0124 282.131 28.1526 282.131 29.6376C282.131 31.2286 282.734 32.3953 283.94 33.1378C285.197 33.8802 286.875 34.4371 288.971 34.8083L291.723 35.2856C294.501 35.7629 297.043 36.4258 299.349 37.2743C301.656 38.1229 303.464 39.3426 304.774 40.9336C306.137 42.5246 306.818 44.646 306.818 47.2976C306.818 51.2221 305.377 54.2715 302.494 56.4458C299.611 58.6202 295.733 59.7074 290.858 59.7074Z" fill="#E3B4FA"/>
<path d="M186.505 59.7073V18.703H211.979V25.7323H194.147V35.6319H210.589V42.6612H194.147V59.7073H186.505Z" fill="#FFCBAE"/>
<path d="M316.154 59.7068V25.5299H304.273V18.4588H335.722V25.5299H323.841V59.7068H316.154Z" fill="#FFCBAE"/>
<path d="M233.915 59.7074C231.137 59.7074 228.647 59.2301 226.446 58.2755C224.297 57.3209 222.567 55.9155 221.257 54.0593C219.999 52.2032 219.37 49.9493 219.37 47.2976C219.37 44.5929 219.999 42.3655 221.257 40.6154C222.567 38.8123 224.323 37.46 226.524 36.5584C228.778 35.6568 231.32 35.2061 234.151 35.2061H245.944V32.6605C245.944 30.38 245.262 28.5504 243.9 27.1715C242.537 25.7927 240.44 25.1032 237.61 25.1032C234.832 25.1032 232.709 25.7662 231.242 27.092C229.774 28.4178 228.804 30.1414 228.333 32.2627L220.785 29.7967C221.414 27.6753 222.41 25.7662 223.772 24.0691C225.188 22.319 227.048 20.9136 229.355 19.853C231.661 18.7923 234.439 18.262 237.688 18.262C242.72 18.262 246.678 19.5613 249.56 22.1599C252.443 24.7585 253.885 28.4443 253.885 33.2173V49.3659C253.885 50.9569 254.618 51.7524 256.086 51.7524H259.388V58.5937H253.334C251.5 58.5937 250.006 58.1164 248.853 57.1618C247.7 56.2072 247.123 54.9079 247.123 53.2638V53.0252H245.944C245.524 53.8207 244.895 54.7488 244.057 55.8094C243.218 56.8701 241.986 57.7982 240.362 58.5937C238.737 59.3361 236.588 59.7074 233.915 59.7074ZM235.094 52.9456C238.344 52.9456 240.964 52.0176 242.956 50.1614C244.948 48.2522 245.944 45.6536 245.944 42.3655V41.57H234.622C232.473 41.57 230.744 42.0473 229.433 43.0019C228.123 43.9035 227.468 45.2558 227.468 47.059C227.468 48.8621 228.149 50.294 229.512 51.3546C230.875 52.4153 232.735 52.9456 235.094 52.9456Z" fill="#FFCBAE"/>
<path d="M282.836 59.7074C277.909 59.7074 273.821 58.5937 270.571 56.3663C267.322 54.1389 265.33 50.7713 264.596 46.2635L272.144 44.4338C272.563 46.6082 273.271 48.3318 274.267 49.6046C275.262 50.8773 276.494 51.7789 277.962 52.3092C279.482 52.8396 281.107 53.1047 282.836 53.1047C285.405 53.1047 287.37 52.6009 288.733 51.5933C290.148 50.5857 290.856 49.2864 290.856 47.6954C290.856 46.1044 290.2 44.9376 288.89 44.1952C287.58 43.4527 285.64 42.8428 283.072 42.3655L280.399 41.8882C277.778 41.4109 275.393 40.7215 273.244 39.8199C271.095 38.9184 269.392 37.6721 268.134 36.0811C266.876 34.4901 266.247 32.4483 266.247 29.9558C266.247 26.2435 267.61 23.3797 270.335 21.3644C273.061 19.2961 276.678 18.262 281.185 18.262C285.536 18.262 289.1 19.2696 291.878 21.2849C294.708 23.2471 296.543 25.9253 297.381 29.3194L289.834 31.4672C289.362 29.0807 288.366 27.4102 286.846 26.4556C285.326 25.448 283.439 24.9441 281.185 24.9441C278.984 24.9441 277.254 25.3684 275.996 26.2169C274.738 27.0124 274.109 28.1526 274.109 29.6376C274.109 31.2286 274.712 32.3953 275.918 33.1378C277.176 33.8802 278.853 34.4371 280.949 34.8083L283.701 35.2856C286.479 35.7629 289.021 36.4258 291.327 37.2743C293.634 38.1229 295.442 39.3426 296.752 40.9336C298.115 42.5246 298.796 44.646 298.796 47.2976C298.796 51.2221 297.355 54.2715 294.472 56.4458C291.589 58.6202 287.711 59.7074 282.836 59.7074Z" fill="#FFCBAE"/>
<path d="M190.517 59.7073V18.703H215.99V25.7323H198.159V35.6319H214.601V42.6612H198.159V59.7073H190.517Z" fill="white"/>
<path d="M320.165 59.7068V25.5299H308.285V18.4588H339.733V25.5299H327.853V59.7068H320.165Z" fill="white"/>
<path d="M237.926 59.7074C235.148 59.7074 232.658 59.2301 230.457 58.2755C228.308 57.3209 226.578 55.9155 225.268 54.0593C224.01 52.2032 223.381 49.9493 223.381 47.2976C223.381 44.5929 224.01 42.3655 225.268 40.6154C226.578 38.8123 228.334 37.46 230.535 36.5584C232.789 35.6568 235.331 35.2061 238.162 35.2061H249.955V32.6605C249.955 30.38 249.274 28.5504 247.911 27.1715C246.548 25.7927 244.451 25.1032 241.621 25.1032C238.843 25.1032 236.72 25.7662 235.253 27.092C233.785 28.4178 232.815 30.1414 232.344 32.2627L224.796 29.7967C225.425 27.6753 226.421 25.7662 227.784 24.0691C229.199 22.319 231.06 20.9136 233.366 19.853C235.672 18.7923 238.45 18.262 241.7 18.262C246.731 18.262 250.689 19.5613 253.572 22.1599C256.454 24.7585 257.896 28.4443 257.896 33.2173V49.3659C257.896 50.9569 258.63 51.7524 260.097 51.7524H263.399V58.5937H257.345C255.511 58.5937 254.017 58.1164 252.864 57.1618C251.711 56.2072 251.134 54.9079 251.134 53.2638V53.0252H249.955C249.536 53.8207 248.907 54.7488 248.068 55.8094C247.229 56.8701 245.998 57.7982 244.373 58.5937C242.748 59.3361 240.599 59.7074 237.926 59.7074ZM239.105 52.9456C242.355 52.9456 244.976 52.0176 246.967 50.1614C248.959 48.2522 249.955 45.6536 249.955 42.3655V41.57H238.633C236.484 41.57 234.755 42.0473 233.444 43.0019C232.134 43.9035 231.479 45.2558 231.479 47.059C231.479 48.8621 232.16 50.294 233.523 51.3546C234.886 52.4153 236.747 52.9456 239.105 52.9456Z" fill="white"/>
<path d="M286.847 59.7074C281.921 59.7074 277.832 58.5937 274.583 56.3663C271.333 54.1389 269.341 50.7713 268.607 46.2635L276.155 44.4338C276.574 46.6082 277.282 48.3318 278.278 49.6046C279.274 50.8773 280.505 51.7789 281.973 52.3092C283.493 52.8396 285.118 53.1047 286.847 53.1047C289.416 53.1047 291.381 52.6009 292.744 51.5933C294.159 50.5857 294.867 49.2864 294.867 47.6954C294.867 46.1044 294.212 44.9376 292.901 44.1952C291.591 43.4527 289.652 42.8428 287.083 42.3655L284.41 41.8882C281.79 41.4109 279.405 40.7215 277.256 39.8199C275.107 38.9184 273.403 37.6721 272.145 36.0811C270.887 34.4901 270.258 32.4483 270.258 29.9558C270.258 26.2435 271.621 23.3797 274.347 21.3644C277.072 19.2961 280.689 18.262 285.196 18.262C289.547 18.262 293.111 19.2696 295.889 21.2849C298.719 23.2471 300.554 25.9253 301.392 29.3194L293.845 31.4672C293.373 29.0807 292.377 27.4102 290.857 26.4556C289.337 25.448 287.45 24.9441 285.196 24.9441C282.995 24.9441 281.265 25.3684 280.007 26.2169C278.749 27.0124 278.121 28.1526 278.121 29.6376C278.121 31.2286 278.723 32.3953 279.929 33.1378C281.187 33.8802 282.864 34.4371 284.961 34.8083L287.712 35.2856C290.49 35.7629 293.032 36.4258 295.339 37.2743C297.645 38.1229 299.453 39.3426 300.763 40.9336C302.126 42.5246 302.808 44.646 302.808 47.2976C302.808 51.2221 301.366 54.2715 298.483 56.4458C295.601 58.6202 291.722 59.7074 286.847 59.7074Z" fill="white"/>
</svg>
