<svg xmlns="http://www.w3.org/2000/svg" fill="none" viewBox="0 0 115 40">
  <path fill="#B4FC75" d="m32.232 17.056 2.458-1.42v-5.64l-4.884-2.82-2.459 1.422a3.437 3.437 0 0 1-5.093-3.013l-.001-2.766L17.371 0l-.026.015L17.319 0l-4.882 2.82v2.765a3.437 3.437 0 0 1-5.093 3.013l-2.46-1.421L0 9.997v5.64l2.46 1.419a3.438 3.438 0 0 1-.064 5.917L0 24.356v5.637l.001.001v.008l4.883 2.818 2.393-1.383a3.441 3.441 0 0 1 5.16 2.978v2.766L17.319 40l.026-.015.026.015 4.882-2.82.001-2.765a3.438 3.438 0 0 1 5.159-2.977l2.393 1.382L34.69 30v-5.646l-2.394-1.382a3.437 3.437 0 0 1-.063-5.917Zm-4.912 5.916-2.395 1.383v.008h-.001v2.765a3.44 3.44 0 0 1-5.158 2.979l-2.395-1.383-.026.014-.026-.014-2.395 1.383a3.44 3.44 0 0 1-5.158-2.979v-2.773L7.37 22.973a3.436 3.436 0 0 1-.076-5.908l2.47-1.428v-2.764a3.438 3.438 0 0 1 5.16-2.979l2.394 1.382.026-.014.026.014 2.395-1.382a3.439 3.439 0 0 1 5.158 2.979v2.764l2.47 1.428a3.434 3.434 0 0 1-.074 5.908Z"/>
  <path fill="#E8E8E8" d="M55.708 32.271c-1.4.009-2.793-.185-4.138-.575a8.107 8.107 0 0 1-3.452-2.075 7.863 7.863 0 0 1-1.681-2.499 7.422 7.422 0 0 1-.608-2.924v-.265h4.357l.01.255c.011.675.185 1.338.507 1.933a4.786 4.786 0 0 0 1.24 1.433c.53.387 1.14.648 1.786.762.71.145 1.434.218 2.16.22a9.552 9.552 0 0 0 2.174-.24 4.397 4.397 0 0 0 1.852-.96l.015-.013a2.37 2.37 0 0 0 .729-.936c.193-.417.293-.872.29-1.332a2.585 2.585 0 0 0-.82-1.974 4.4 4.4 0 0 0-2.514-1.013c-.242-.03-.568-.074-.997-.136-.407-.058-.849-.116-1.35-.18-.48-.06-.969-.12-1.465-.18a40.331 40.331 0 0 1-1.34-.182 7.32 7.32 0 0 1-4.235-2.04 6.017 6.017 0 0 1-1.587-4.36c0-.906.201-1.8.59-2.618a7.212 7.212 0 0 1 1.384-2.038 8.188 8.188 0 0 1 2.934-1.91c1.27-.48 2.62-.715 3.979-.695a12.033 12.033 0 0 1 4.291.74A7.436 7.436 0 0 1 63 10.714c.514.6.93 1.278 1.236 2.007.313.809.466 1.671.448 2.539v.265h-4.353l-.013-.252a3.754 3.754 0 0 0-.4-1.54c-.206-.419-.484-.799-.822-1.121a5.169 5.169 0 0 0-3.568-1.15 6.857 6.857 0 0 0-2.556.429 3.88 3.88 0 0 0-1.586 1.2 2.691 2.691 0 0 0-.559 1.627 2.301 2.301 0 0 0 .714 1.892c.627.456 1.362.74 2.132.825.632.09 1.404.189 2.291.292.902.106 1.985.266 3.219.476a7.775 7.775 0 0 1 4.271 2.149 5.99 5.99 0 0 1 1.772 4.431c.016.941-.16 1.876-.518 2.746a7.114 7.114 0 0 1-1.36 2.086 7.897 7.897 0 0 1-3.363 2.034 14.276 14.276 0 0 1-4.277.621ZM105.236 32.271a14.51 14.51 0 0 1-4.137-.575 8.107 8.107 0 0 1-3.452-2.075 7.863 7.863 0 0 1-1.682-2.499 7.422 7.422 0 0 1-.608-2.924v-.265h4.357l.01.255c.012.675.186 1.338.507 1.933a4.788 4.788 0 0 0 1.241 1.433 4.29 4.29 0 0 0 1.785.762c.711.145 1.435.218 2.16.22a9.554 9.554 0 0 0 2.174-.24 4.396 4.396 0 0 0 1.852-.96l.016-.013c.318-.245.569-.567.728-.936.194-.417.293-.872.291-1.332a2.593 2.593 0 0 0-.82-1.974 4.402 4.402 0 0 0-2.514-1.013 50.55 50.55 0 0 1-.998-.136 86.255 86.255 0 0 0-1.349-.18l-1.466-.18a40.413 40.413 0 0 1-1.34-.182 7.322 7.322 0 0 1-4.234-2.04 6.017 6.017 0 0 1-1.587-4.36c0-.906.2-1.8.59-2.618a7.212 7.212 0 0 1 1.383-2.038 8.188 8.188 0 0 1 2.934-1.91 10.813 10.813 0 0 1 3.979-.695 12.033 12.033 0 0 1 4.292.74 7.43 7.43 0 0 1 3.18 2.246c.514.6.931 1.278 1.236 2.007.314.809.466 1.671.449 2.539v.265h-4.354l-.012-.252a3.77 3.77 0 0 0-.4-1.54c-.206-.419-.485-.799-.823-1.121a5.17 5.17 0 0 0-3.568-1.15 6.862 6.862 0 0 0-2.556.429c-.624.256-1.17.67-1.586 1.2a2.69 2.69 0 0 0-.558 1.627 2.297 2.297 0 0 0 .714 1.892c.627.456 1.361.74 2.131.825.632.09 1.404.189 2.292.292a63.98 63.98 0 0 1 3.218.476 7.778 7.778 0 0 1 4.272 2.149 5.995 5.995 0 0 1 1.771 4.431 6.89 6.89 0 0 1-.518 2.746 7.1 7.1 0 0 1-1.36 2.086 7.891 7.891 0 0 1-3.363 2.034 14.272 14.272 0 0 1-4.277.621ZM85.91 31.684V16.931c0-1.646-.368-2.942-1.093-3.852-.711-.892-1.94-1.345-3.652-1.345-1-.016-1.978.307-2.772.916a6.782 6.782 0 0 0-1.954 2.456 7.91 7.91 0 0 0-.674 2.79 42.595 42.595 0 0 0-.112 2.916v10.872h-4.367V8.317h3.847l.258 2.804c.243-.377.528-.725.85-1.037a7.655 7.655 0 0 1 1.777-1.286 9.673 9.673 0 0 1 2.042-.789c.67-.18 1.36-.274 2.053-.28 2.683 0 4.739.774 6.11 2.3 1.363 1.519 2.054 3.659 2.054 6.361v15.296H85.91Z"/>
</svg>
